#!OML:ASF F:\VICON\USERDATA\INSTALL\rory3\rory3.ASF
:FULLY-SPECIFIED
:DEGREES

259
root 3.67765 17.9243 27.5161 -3.44522 -3.44509 -7.06604
lowerback 11.679 1.19209 5.79797
upperback 0.36277 2.50484 2.32033
thorax -6.0371 1.09493 -1.23578
lowerneck -16.8599 -3.05568 -1.91853
upperneck 17.3714 -3.87751 0.842274
head 8.22545 -1.87679 0.13352
rclavicle 5.59082e-015 -1.27719e-014
rhumerus -26.9417 -10.9971 -82.4187
rradius 29.3096
rwrist 0.421151
rhand -19.0019 23.4643
rfingers 7.12502
rthumb 7.30328 -6.38964
lclavicle 5.59082e-015 -1.27719e-014
lhumerus -36.9764 -1.60561 85.0237
lradius 31.8036
lwrist 9.00243
lhand -26.8566 21.718
lfingers 7.12502
lthumb -0.281582 51.6976
rfemur -4.05735 7.39049 34.1822
rtibia 30.414
rfoot -18.2479 -7.37307
rtoes 7.48663
lfemur -26.6658 0.963526 -11.9106
ltibia 60.3014
lfoot -7.85113 -3.53336
ltoes -4.93932
260
root 3.68044 17.9057 27.6962 -3.31316 -3.42696 -7.00524
lowerback 11.5258 1.28773 5.86314
upperback 0.36974 2.62199 2.22989
thorax -5.92905 1.15254 -1.38109
lowerneck -17.068 -3.08365 -2.04074
upperneck 17.4752 -3.91528 1.00653
head 8.30388 -1.88402 0.199689
rclavicle 3.5028e-015 -1.77415e-014
rhumerus -26.6971 -10.3737 -82.6217
rradius 29.9494
rwrist -0.355522
rhand -18.7136 22.9985
rfingers 7.12502
rthumb 7.58155 -6.84565
lclavicle 3.5028e-015 -1.77415e-014
lhumerus -37.3422 -1.74609 85.1573
lradius 31.6943
lwrist 9.34543
lhand -27.5769 20.3396
lfingers 7.12502
lthumb -0.977255 50.3171
rfemur -3.42084 7.29413 34.1292
rtibia 30.2162
rfoot -18.6879 -7.38557
rtoes 7.53196
lfemur -27.1701 0.861531 -12.0129
ltibia 58.595
lfoot -8.10875 -2.41511
ltoes -5.82556
261
root 3.6789 17.8942 27.8722 -3.2583 -3.47595 -7.02024
lowerback 11.4374 1.37867 5.93233
upperback 0.492066 2.73505 2.19204
thorax -5.73716 1.21312 -1.47233
lowerneck -17.1237 -3.05759 -2.18284
upperneck 17.2252 -3.89074 1.26739
head 8.23788 -1.85508 0.313966
rclavicle -1.20226e-014 -1.10077e-014
rhumerus -26.1356 -9.72944 -82.8554
rradius 30.4533
rwrist -0.927911
rhand -18.676 22.8248
rfingers 7.12502
rthumb 7.61792 -7.01796
lclavicle -1.20226e-014 -1.10077e-014
lhumerus -37.4012 -1.97775 85.4108
lradius 31.2291
lwrist 10.946
lhand -29.2099 15.7928
lfingers 7.12502
lthumb -2.55445 45.7573
rfemur -2.66711 7.42943 34.2442
rtibia 29.9042
rfoot -19.1501 -7.68463
rtoes 7.60012
lfemur -27.6361 0.768095 -11.9416
ltibia 56.6157
lfoot -8.28355 -1.62552
ltoes -5.36538
262
root 3.67269 17.8821 28.046 -3.17627 -3.60873 -7.42664
lowerback 11.4716 1.45073 6.29162
upperback 0.579713 2.88068 2.2933
thorax -5.64222 1.2805 -1.58833
lowerneck -17.1552 -3.06238 -2.0818
upperneck 16.9209 -3.89504 1.15882
head 8.13678 -1.86247 0.26254
rclavicle -1.39786e-014 -1.13059e-014
rhumerus -25.5912 -9.28146 -82.9819
rradius 30.8994
rwrist -1.02402
rhand -18.757 22.9944
rfingers 7.12502
rthumb 7.53966 -6.85126
lclavicle -1.39786e-014 -1.13059e-014
lhumerus -37.1413 -1.2237 85.0388
lradius 31.1035
lwrist 8.9571
lhand -27.6377 20.5965
lfingers 7.12502
lthumb -1.036 50.5737
rfemur -1.91412 7.69257 34.8386
rtibia 29.5761
rfoot -19.6024 -8.05746
rtoes 7.38979
lfemur -28.1915 0.56766 -11.3148
ltibia 54.4043
lfoot -8.06695 -1.13194
ltoes -2.64473
263
root 3.67302 17.8623 28.2197 -3.07954 -3.67276 -7.77803
lowerback 11.5864 1.49199 6.69137
upperback 0.536372 3.00304 2.34276
thorax -5.72721 1.32686 -1.78258
lowerneck -17.089 -3.1199 -1.9291
upperneck 16.7263 -3.96289 0.918647
head 8.05252 -1.91044 0.152232
rclavicle 4.66735e-014 4.36317e-015
rhumerus -25.4639 -8.83855 -83.0716
rradius 31.4731
rwrist -1.38061
rhand -18.6849 23.4366
rfingers 7.12502
rthumb 7.60934 -6.40648
lclavicle 4.66735e-014 4.36317e-015
lhumerus -37.2825 -0.836392 84.9182
lradius 30.9115
lwrist 8.03605
lhand -27.1455 21.3882
lfingers 7.12502
lthumb -0.56061 51.3672
rfemur -1.1454 7.8423 35.3129
rtibia 29.1876
rfoot -19.9288 -8.27488
rtoes 7.64851
lfemur -28.6219 0.369505 -10.8078
ltibia 52.0209
lfoot -7.73045 -0.732551
ltoes -0.876737
264
root 3.67555 17.844 28.3941 -2.86695 -3.64969 -7.7166
lowerback 11.5425 1.5346 6.65557
upperback 0.452213 3.05434 2.31024
thorax -5.78806 1.34904 -1.80461
lowerneck -17.0727 -3.1196 -1.96352
upperneck 16.6215 -3.94949 0.905279
head 8.01492 -1.90807 0.156103
rclavicle -4.18809e-014 -8.28684e-015
rhumerus -25.2109 -8.27296 -83.1465
rradius 31.8747
rwrist -1.78315
rhand -18.579 23.6694
rfingers 7.12502
rthumb 7.71154 -6.17001
lclavicle -4.18809e-014 -8.28684e-015
lhumerus -37.5391 -0.434433 84.8674
lradius 30.7085
lwrist 7.69111
lhand -27.1269 21.3671
lfingers 7.12502
lthumb -0.542663 51.3462
rfemur -0.552326 7.93606 35.2944
rtibia 28.8088
rfoot -20.1091 -8.50293
rtoes 6.89717
lfemur -28.9792 0.226752 -10.8382
ltibia 49.3967
lfoot -7.38329 -0.280599
ltoes -2.31107
265
root 3.67564 17.8351 28.5753 -2.68308 -3.5757 -7.60324
lowerback 11.3767 1.61279 6.6007
upperback 0.489739 3.12719 2.20142
thorax -5.64583 1.39052 -1.89228
lowerneck -17.2305 -3.14409 -1.87837
upperneck 16.5733 -4.01236 0.96216
head 8.02669 -1.92576 0.151625
rclavicle 4.79172e-014 3.37188e-014
rhumerus -24.6147 -8.16234 -83.2549
rradius 31.9866
rwrist -1.74266
rhand -18.5042 23.6754
rfingers 7.12502
rthumb 7.78368 -6.16133
lclavicle 4.79172e-014 3.37188e-014
lhumerus -37.6084 -0.144452 84.6918
lradius 30.5575
lwrist 7.30281
lhand -26.6993 21.4311
lfingers 7.12502
lthumb -0.129623 51.4108
rfemur 0.0882623 8.04876 35.25
rtibia 28.4488
rfoot -20.109 -8.76614
rtoes 6.46416
lfemur -29.1581 -0.134461 -10.8539
ltibia 46.5633
lfoot -7.07763 0.144374
ltoes -1.72938
